<svg width="26" height="31" xmlns="http://www.w3.org/2000/svg">

 <g>
  <title>background</title>
  <rect fill="none" id="canvas_background" height="402" width="582" y="-1" x="-1"/>
 </g>
 <g>
  <title>Layer 1</title>
  <path id="svg_2" fill="#5e6c84" d="m23.524,5l-4.524,0l0,-5l-12,0l0,5l-4.524,0c-1.53,0 -2.476,0.939 -2.476,2.468l0,1.532l26,0l0,-1.532c0,-1.529 -0.947,-2.468 -2.476,-2.468zm-14.524,-3l8,0l0,3l-8,0l0,-3z"/>
  <path id="svg_3" fill="#5e6c84" d="m1.035,11l3.49,17.478c0,1.376 1.118,2.522 2.494,2.522l5.981,0l5.981,0c1.376,0 2.493,-1.146 2.493,-2.522l3.491,-17.478l-11.965,0l-11.965,0z"/>
 </g>
</svg>